<?xml version="1.0" encoding="UTF-8"?>
<svg version="1.1" xmlns="http://www.w3.org/2000/svg" width="256" height="256">
<path d="M0 0 C9.57 0 19.14 0 29 0 C34.63090344 11.85256567 39.83589327 23.84902824 44.9375 35.9375 C45.72435875 37.79633007 46.51146663 39.6550547 47.29882812 41.51367188 C49.20208422 46.00790794 51.10199383 50.50354442 53 55 C59.49570023 40.32854359 65.90626542 25.6243129 72.20214844 10.86621094 C72.68458008 9.73602539 73.16701172 8.60583984 73.6640625 7.44140625 C74.09154785 6.43795166 74.5190332 5.43449707 74.95947266 4.40063477 C75.60249603 2.91709445 76.2768996 1.44620079 77 0 C86.57 0 96.14 0 106 0 C106 7.26 106 14.52 106 22 C103.69 22.33 101.38 22.66 99 23 C99 52.37 99 81.74 99 112 C101.31 112 103.62 112 106 112 C106 118.93 106 125.86 106 133 C94.12 133 82.24 133 70 133 C70 126.07 70 119.14 70 112 C72.31 112 74.62 112 77 112 C76.67 95.17 76.34 78.34 76 61 C74.040625 65.681875 72.08125 70.36375 70.0625 75.1875 C64.77080554 87.81877067 59.42517308 100.42537403 54 113 C53.34 113 52.68 113 52 113 C44.74 95.84 37.48 78.68 30 61 C29.67 77.83 29.34 94.66 29 112 C31.31 112 33.62 112 36 112 C36 118.93 36 125.86 36 133 C24.12 133 12.24 133 0 133 C0 126.07 0 119.14 0 112 C2.64 112 5.28 112 8 112 C8 82.3 8 52.6 8 22 C5.36 22 2.72 22 0 22 C0 14.74 0 7.48 0 0 Z " fill="#0C2B55" transform="translate(78,61)"/>
<path d="M0 0 C84.48 0 168.96 0 256 0 C256 8.25 256 16.5 256 25 C171.52 25 87.04 25 0 25 C0 16.75 0 8.5 0 0 Z " fill="#0C2B55" transform="translate(0,211)"/>
<path d="M0 0 C84.48 0 168.96 0 256 0 C256 8.25 256 16.5 256 25 C171.52 25 87.04 25 0 25 C0 16.75 0 8.5 0 0 Z " fill="#0A2A54" transform="translate(0,25)"/>
<path d="M0 0 C2.43237845 0.07002821 4.8336985 0.00057714 7.26513672 -0.08251953 C15.94114374 -0.13833104 22.1478063 1.26666508 28.53076172 7.40185547 C32.71327248 11.88527193 34.724837 15.62003135 35.19482422 21.87060547 C35.10997629 24.25287422 34.9571204 26.63365637 34.73779297 29.00732422 C34.67914063 30.23644531 34.62048828 31.46556641 34.56005859 32.73193359 C34.40874826 35.72322247 34.17561713 38.71018994 33.92529297 41.69482422 C26.99529297 41.69482422 20.06529297 41.69482422 12.92529297 41.69482422 C12.92529297 35.75482422 12.92529297 29.81482422 12.92529297 23.69482422 C5.99529297 23.69482422 -0.93470703 23.69482422 -8.07470703 23.69482422 C-8.07470703 35.24482422 -8.07470703 46.79482422 -8.07470703 58.69482422 C1.26222884 58.22351895 1.26222884 58.22351895 10.59033203 57.61376953 C17.78530913 57.43228516 23.3717672 58.34195052 28.81591797 63.11669922 C35.9196272 70.41407022 35.60731306 80.01617951 35.56591797 89.64794922 C35.54078125 90.80617188 35.51564453 91.96439453 35.48974609 93.15771484 C35.42534472 96.69198426 35.48922643 100.20798927 35.56591797 103.74169922 C35.65509637 123.2842125 35.65509637 123.2842125 29.05029297 130.22607422 C22.18411743 136.28312059 13.77653961 136.51824083 5.01660156 136.25927734 C2.42164574 136.1947335 -0.14847488 136.2587588 -2.74267578 136.33544922 C-11.26217479 136.38343662 -17.92582927 135.56333722 -24.24658203 129.46044922 C-29.02704761 124.24919335 -30.372521 119.52965893 -30.12939453 112.39794922 C-30.02884766 111.25841797 -29.92830078 110.11888672 -29.82470703 108.94482422 C-29.74349609 107.16591797 -29.74349609 107.16591797 -29.66064453 105.35107422 C-29.52087164 102.46243443 -29.30567175 99.57760614 -29.07470703 96.69482422 C-22.14470703 96.69482422 -15.21470703 96.69482422 -8.07470703 96.69482422 C-8.07470703 102.30482422 -8.07470703 107.91482422 -8.07470703 113.69482422 C-1.14470703 113.69482422 5.78529297 113.69482422 12.92529297 113.69482422 C12.92529297 102.14482422 12.92529297 90.59482422 12.92529297 78.69482422 C3.5883571 79.16612948 3.5883571 79.16612948 -5.73974609 79.77587891 C-12.93684125 79.9574167 -18.51838264 79.04761057 -23.96142578 74.26904297 C-31.04883394 66.98245807 -30.78743176 57.41192724 -30.76416016 47.79052734 C-30.7410376 46.63431885 -30.71791504 45.47811035 -30.6940918 44.28686523 C-30.63729547 40.76281141 -30.71394781 37.25887619 -30.80322266 33.73583984 C-30.86976512 23.73834485 -30.92453948 14.23726195 -23.63330078 6.66748047 C-16.69958778 0.50883564 -8.96786688 -0.30648524 0 0 Z " fill="#072751" transform="translate(222.07470703125,59.30517578125)"/>
<path d="M0 0 C11.55 0 23.1 0 35 0 C35 7.26 35 14.52 35 22 C32.03 22.495 32.03 22.495 29 23 C29 52.04 29 81.08 29 111 C35.6 111.33 42.2 111.66 49 112 C49 105.73 49 99.46 49 93 C55.93 93 62.86 93 70 93 C70 106.2 70 119.4 70 133 C46.9 133 23.8 133 0 133 C0 126.07 0 119.14 0 112 C1.98 112 3.96 112 6 112 C6 82.3 6 52.6 6 22 C4.02 22 2.04 22 0 22 C0 14.74 0 7.48 0 0 Z " fill="#102E57" transform="translate(0,61)"/>
<path d="M0 0 C1.73226509 0.05528333 3.46470124 0.10545474 5.19726562 0.15039062 C9.40663128 0.27056714 13.60764252 0.45968511 17.8125 0.6875 C17.8125 1.0175 17.8125 1.3475 17.8125 1.6875 C16.85585449 1.64447754 15.89920898 1.60145508 14.91357422 1.55712891 C-4.19516468 -0.04924028 -4.19516468 -0.04924028 -21.5625 5.87109375 C-25.01986769 9.10815126 -27.70625998 12.664569 -30.1875 16.6875 C-30.8475 16.3575 -31.5075 16.0275 -32.1875 15.6875 C-25.43326791 0.34401833 -15.01872027 -0.83844814 0 0 Z " fill="#60728D" transform="translate(225.1875,60.3125)"/>
<path d="M0 0 C0.78165527 0.23771118 0.78165527 0.23771118 1.57910156 0.48022461 C4.65107932 1.13978902 7.59339747 1.21997273 10.734375 1.31640625 C11.90194336 1.35451416 13.06951172 1.39262207 14.27246094 1.43188477 C15.75004883 1.47498779 17.22763672 1.51809082 18.75 1.5625 C23.4525 1.706875 28.155 1.85125 33 2 C33 13.88 33 25.76 33 38 C32.67 38 32.34 38 32 38 C32 26.45 32 14.9 32 3 C22.21679259 3.11870599 22.21679259 3.11870599 12.43408203 3.27026367 C11.22091309 3.27775635 10.00774414 3.28524902 8.7578125 3.29296875 C7.5114502 3.3086792 6.26508789 3.32438965 4.98095703 3.34057617 C3.99724121 3.22818604 3.01352539 3.1157959 2 3 C1.34 2.01 0.68 1.02 0 0 Z " fill="#5C6C89" transform="translate(203,135)"/>
<path d="M0 0 C0.33 0 0.66 0 1 0 C1.14285332 6.7809967 1.28522015 13.5620035 1.42724609 20.34301758 C1.47563612 22.65063713 1.5241382 24.95825433 1.57275391 27.26586914 C1.64254631 30.57958376 1.71193791 33.89330656 1.78125 37.20703125 C1.80312378 38.2414888 1.82499756 39.27594635 1.84753418 40.3417511 C1.86755493 41.3025206 1.88757568 42.2632901 1.90820312 43.25317383 C1.92596802 44.09922684 1.94373291 44.94527985 1.96203613 45.81697083 C1.99207747 47.54443236 2 49.27227726 2 51 C1.34 50.67 0.68 50.34 0 50 C0 33.5 0 17 0 0 Z " fill="#2A4267" transform="translate(193,76)"/>
<path d="M0 0 C4.35988072 -0.09890664 8.71916673 -0.17148376 13.07983398 -0.21972656 C14.56302261 -0.23983759 16.04613199 -0.26713074 17.52905273 -0.30175781 C19.66149435 -0.35030352 21.79288777 -0.37297195 23.92578125 -0.390625 C25.20880127 -0.41157227 26.49182129 -0.43251953 27.8137207 -0.45410156 C31 0 31 0 32.94213867 2.02441406 C33.29123291 2.67635742 33.64032715 3.32830078 34 4 C33.01 4 32.02 4 31 4 C30.34 3.34 29.68 2.68 29 2 C25.99027343 1.62703444 25.99027343 1.62703444 22.4609375 1.5859375 C21.15898437 1.54726562 19.85703125 1.50859375 18.515625 1.46875 C17.13542138 1.43729237 15.75521296 1.40604509 14.375 1.375 C12.98695459 1.33682066 11.59893289 1.29776895 10.2109375 1.2578125 C6.80742815 1.16327057 3.40392835 1.07772103 0 1 C0 0.67 0 0.34 0 0 Z " fill="#475678" transform="translate(213,118)"/>
<path d="M0 0 C0.99 0.33 1.98 0.66 3 1 C4.1875 3.5625 4.1875 3.5625 5 6 C5.99 5.67 6.98 5.34 8 5 C7.34 7.31 6.68 9.62 6 12 C5.34 12 4.68 12 4 12 C3.3291288 10.3767313 2.66342971 8.75132422 2 7.125 C1.62875 6.22007812 1.2575 5.31515625 0.875 4.3828125 C0 2 0 2 0 0 Z " fill="#636E8A" transform="translate(126,162)"/>
<path d="M0 0 C0.99 0.33 1.98 0.66 3 1 C3.33 3.64 3.66 6.28 4 9 C1.49701566 6.06171403 0.53069061 3.82097239 0 0 Z " fill="#6B7893" transform="translate(126,162)"/>
<path d="M0 0 C0.99 0.33 1.98 0.66 3 1 C3.33 3.64 3.66 6.28 4 9 C1.49701566 6.06171403 0.53069061 3.82097239 0 0 Z " fill="#747F98" transform="translate(108,120)"/>
</svg>
